
      <svg data-logo="logo" xmlns="http://www.w3.org/2000/svg" viewBox="0 0 167 45">
        <g id="logogram" transform="translate(0, 2.5) rotate(0) "><path d="M0 33L4.60606 25H12.2448C17.2569 25 21.4947 28.7103 22.1571 33.6784L23 40H13L11.5585 36.6365C10.613 34.4304 8.44379 33 6.04362 33H0Z" fill="#1ABC9C"/><path d="M46 33L41.3939 25H33.7552C28.7431 25 24.5053 28.7103 23.8429 33.6784L23 40H33L34.4415 36.6365C35.387 34.4304 37.5562 33 39.9564 33H46Z" fill="#1ABC9C"/><path d="M4.60606 25L18.9999 0H23L22.6032 9.52405C22.2608 17.7406 15.7455 24.3596 7.53537 24.8316L4.60606 25Z" fill="#1ABC9C"/><path d="M41.3939 25L27.0001 0H23L23.3968 9.52405C23.7392 17.7406 30.2545 24.3596 38.4646 24.8316L41.3939 25Z" fill="#1ABC9C"/></g>
        <g id="logotype" transform="translate(52, 1)"><path fill="#1ABC9C" d="M8.03 35L8.03 35L8.03 14.66Q8.03 13.33 8.70 12.23Q9.36 11.13 10.46 10.46Q11.57 9.80 12.89 9.80L12.89 9.80L28.33 9.80Q29.66 9.80 30.78 10.46Q31.90 11.13 32.56 12.23Q33.23 13.33 33.23 14.66L33.23 14.66L33.23 35L28.58 35L28.58 26.53L12.65 26.53L12.65 35L8.03 35ZM12.65 21.91L12.65 21.91L28.58 21.91L28.58 14.87Q28.58 14.70 28.44 14.58Q28.30 14.45 28.12 14.45L28.12 14.45L13.07 14.45Q12.89 14.45 12.77 14.58Q12.65 14.70 12.65 14.87L12.65 14.87L12.65 21.91ZM41.88 35L41.88 35Q40.55 35 39.46 34.34Q38.38 33.67 37.71 32.59Q37.05 31.50 37.05 30.17L37.05 30.17L37.05 19.53Q37.05 18.20 37.71 17.11Q38.38 16.03 39.46 15.36Q40.55 14.70 41.88 14.70L41.88 14.70L52.83 14.70Q54.16 14.70 55.26 15.36Q56.37 16.03 57.01 17.11Q57.66 18.20 57.66 19.53L57.66 19.53L57.66 27.16L41.63 27.16L41.63 29.99Q41.63 30.17 41.75 30.29Q41.88 30.41 42.05 30.41L42.05 30.41L57.66 30.41L57.66 35L41.88 35ZM41.63 19.70L41.63 23.03L53.08 23.03L53.08 19.70Q53.08 19.53 52.95 19.41Q52.83 19.28 52.66 19.28L52.66 19.28L42.05 19.28Q41.88 19.28 41.75 19.41Q41.63 19.53 41.63 19.70L41.63 19.70ZM76.49 43.02L64.07 43.02L64.07 43.02L64.07 38.40L76.28 38.40Q76.46 38.40 76.58 38.27Q76.70 38.15 76.70 37.98L76.70 37.98L76.70 35L65.50 35Q64.21 35 63.10 34.34Q62.00 33.67 61.34 32.59Q60.67 31.50 60.67 30.17L60.67 30.17L60.67 19.53Q60.67 18.20 61.34 17.11Q62.00 16.03 63.10 15.36Q64.21 14.70 65.50 14.70L65.50 14.70L76.49 14.70Q77.82 14.70 78.91 15.36Q79.99 16.03 80.64 17.11Q81.29 18.20 81.29 19.53L81.29 19.53L81.29 38.19Q81.29 39.55 80.66 40.63Q80.03 41.72 78.92 42.37Q77.82 43.02 76.49 43.02L76.49 43.02ZM65.68 30.41L65.68 30.41L76.28 30.41Q76.46 30.41 76.58 30.29Q76.70 30.17 76.70 29.99L76.70 29.99L76.70 19.70Q76.70 19.53 76.58 19.41Q76.46 19.28 76.28 19.28L76.28 19.28L65.68 19.28Q65.50 19.28 65.38 19.41Q65.26 19.53 65.26 19.70L65.26 19.70L65.26 29.99Q65.26 30.17 65.38 30.29Q65.50 30.41 65.68 30.41ZM89.55 35L84.96 35L84.96 35L84.96 14.70L89.55 14.70L89.55 35ZM89.55 12.67L84.96 12.67L84.96 12.67L84.96 8.05L89.55 8.05L89.55 12.67ZM98.40 35L98.40 35Q97.07 35 95.99 34.34Q94.90 33.67 94.24 32.59Q93.57 31.50 93.57 30.17L93.57 30.17L93.57 29.40L98.16 29.40L98.16 29.99Q98.16 30.17 98.28 30.29Q98.40 30.41 98.58 30.41L98.58 30.41L109.18 30.41Q109.36 30.41 109.48 30.29Q109.60 30.17 109.60 29.99L109.60 29.99L109.60 27.58Q109.60 27.41 109.48 27.28Q109.36 27.16 109.18 27.16L109.18 27.16L98.40 27.16Q97.07 27.16 95.99 26.49Q94.90 25.83 94.24 24.74Q93.57 23.66 93.57 22.33L93.57 22.33L93.57 19.53Q93.57 18.20 94.24 17.11Q94.90 16.03 95.99 15.36Q97.07 14.70 98.40 14.70L98.40 14.70L109.36 14.70Q110.72 14.70 111.81 15.36Q112.89 16.03 113.56 17.11Q114.22 18.20 114.22 19.53L114.22 19.53L114.22 20.30L109.60 20.30L109.60 19.70Q109.60 19.53 109.48 19.41Q109.36 19.28 109.18 19.28L109.18 19.28L98.58 19.28Q98.40 19.28 98.28 19.41Q98.16 19.53 98.16 19.70L98.16 19.70L98.16 22.12Q98.16 22.29 98.28 22.42Q98.40 22.54 98.58 22.54L98.58 22.54L109.36 22.54Q110.72 22.54 111.81 23.20Q112.89 23.87 113.56 24.95Q114.22 26.04 114.22 27.37L114.22 27.37L114.22 30.17Q114.22 31.50 113.56 32.59Q112.89 33.67 111.81 34.34Q110.72 35 109.36 35L109.36 35L98.40 35Z"/></g>
        
      </svg>
    