<svg width="107" height="93" viewBox="0 0 107 93" fill="none" xmlns="http://www.w3.org/2000/svg">
<path d="M0 76.3545L10.6574 57.8444H28.3317C39.9286 57.8444 49.7339 66.4292 51.2665 77.9242L53.2168 92.551H30.0791L26.7438 84.7686C24.5561 79.6642 19.537 76.3545 13.9836 76.3545H0Z" fill="#FF6900"/>
<path d="M106.434 76.3545L95.7761 57.8444H78.1019C66.505 57.8444 56.6997 66.4292 55.1671 77.9242L53.2168 92.551H76.3545L79.6898 84.7686C81.8775 79.6642 86.8966 76.3545 92.4501 76.3545H106.434Z" fill="#FF6900"/>
<path d="M10.6574 57.8443L43.9615 0H53.2168L52.2987 22.0365C51.5065 41.0477 36.4316 56.3626 17.4352 57.4547L10.6574 57.8443Z" fill="#FF6900"/>
<path d="M95.7761 57.8443L62.4721 0H53.2168L54.1349 22.0365C54.9271 41.0477 70.0021 56.3626 88.9984 57.4547L95.7761 57.8443Z" fill="#FF6900"/>
</svg>
