<svg width="387" height="105" viewBox="0 0 387 105" fill="none" xmlns="http://www.w3.org/2000/svg">
<path d="M0 82.139L10.6574 63.6288H28.3317C39.9286 63.6288 49.7339 72.2136 51.2665 83.7086L53.2168 98.3354H30.0791L26.7438 90.553C24.5561 85.4486 19.537 82.139 13.9836 82.139H0Z" fill="#FF6900"/>
<path d="M106.434 82.139L95.7761 63.6288H78.1019C66.505 63.6288 56.6997 72.2136 55.1671 83.7086L53.2168 98.3354H76.3545L79.6898 90.553C81.8775 85.4486 86.8966 82.139 92.4501 82.139H106.434Z" fill="#FF6900"/>
<path d="M10.6574 63.6288L43.9615 5.78442H53.2168L52.2987 27.8209C51.5065 46.8322 36.4316 62.147 17.4352 63.2391L10.6574 63.6288Z" fill="#FF6900"/>
<path d="M95.7761 63.6288L62.4721 5.78442H53.2168L54.1349 27.8209C54.9271 46.8322 70.0021 62.147 88.9984 63.2391L95.7761 63.6288Z" fill="#FF6900"/>
<path d="M138.896 83.2959V36.2337C138.896 34.1822 139.413 32.308 140.446 30.6113C141.464 28.9145 142.822 27.5494 144.518 26.5159C146.231 25.4978 148.105 24.9888 150.141 24.9888H185.865C187.917 24.9888 189.807 25.4978 191.534 26.5159C193.262 27.5494 194.635 28.9145 195.653 30.6113C196.686 32.308 197.203 34.1822 197.203 36.2337V83.2959H186.444V63.6982H149.586V83.2959H138.896ZM149.586 53.0086H186.444V36.7196C186.444 36.4574 186.336 36.2337 186.12 36.0486C185.904 35.8481 185.657 35.7478 185.38 35.7478H150.557C150.28 35.7478 150.048 35.8481 149.863 36.0486C149.678 36.2337 149.586 36.4574 149.586 36.7196V53.0086ZM217.217 83.2959C215.166 83.2959 213.299 82.7869 211.618 81.7688C209.952 80.7353 208.602 79.3856 207.569 77.7197C206.551 76.0384 206.042 74.1719 206.042 72.1204V47.5018C206.042 45.4503 206.551 43.5838 207.569 41.9025C208.602 40.2366 209.952 38.8869 211.618 37.8534C213.299 36.8353 215.166 36.3263 217.217 36.3263H242.553C244.604 36.3263 246.479 36.8353 248.175 37.8534C249.888 38.8869 251.237 40.2366 252.225 41.9025C253.227 43.5838 253.728 45.4503 253.728 47.5018V65.1559H216.639V71.7039C216.639 71.9815 216.731 72.2129 216.916 72.398C217.117 72.5831 217.348 72.6757 217.61 72.6757H253.728V83.2959H217.217ZM216.639 47.8952V55.6H243.131V47.8952C243.131 47.6329 243.031 47.4093 242.831 47.2242C242.645 47.0236 242.422 46.9234 242.16 46.9234H217.61C217.348 46.9234 217.117 47.0236 216.916 47.2242C216.731 47.4093 216.639 47.6329 216.639 47.8952ZM297.297 101.852H268.56V91.1627H296.811C297.089 91.1627 297.32 91.0625 297.505 90.8619C297.69 90.6768 297.783 90.4532 297.783 90.1909V83.2959H271.868C269.879 83.2959 268.028 82.7869 266.315 81.7688C264.619 80.7353 263.261 79.3856 262.243 77.7197C261.21 76.0384 260.693 74.1719 260.693 72.1204V47.5018C260.693 45.4503 261.21 43.5838 262.243 41.9025C263.261 40.2366 264.619 38.8869 266.315 37.8534C268.028 36.8353 269.879 36.3263 271.868 36.3263H297.297C299.348 36.3263 301.215 36.8353 302.896 37.8534C304.562 38.8869 305.896 40.2366 306.899 41.9025C307.902 43.5838 308.403 45.4503 308.403 47.5018V90.6768C308.403 92.7746 307.917 94.6565 306.945 96.3224C305.973 98.0038 304.631 99.3458 302.919 100.348C301.223 101.351 299.348 101.852 297.297 101.852ZM272.285 72.6757H296.811C297.089 72.6757 297.32 72.5831 297.505 72.398C297.69 72.2129 297.783 71.9815 297.783 71.7039V47.8952C297.783 47.6329 297.69 47.4093 297.505 47.2242C297.32 47.0236 297.089 46.9234 296.811 46.9234H272.285C272.007 46.9234 271.776 47.0236 271.591 47.2242C271.406 47.4093 271.313 47.6329 271.313 47.8952V71.7039C271.313 71.9815 271.406 72.2129 271.591 72.398C271.776 72.5831 272.007 72.6757 272.285 72.6757ZM327.515 83.2959H316.894V36.3263H327.515V83.2959ZM327.515 31.6293H316.894V20.9397H327.515V31.6293ZM347.992 83.2959C345.94 83.2959 344.081 82.7869 342.415 81.7688C340.734 80.7353 339.384 79.3856 338.366 77.7197C337.333 76.0384 336.816 74.1719 336.816 72.1204V70.3388H347.436V71.7039C347.436 71.9815 347.529 72.2129 347.714 72.398C347.899 72.5831 348.13 72.6757 348.408 72.6757H372.934C373.212 72.6757 373.443 72.5831 373.628 72.398C373.813 72.2129 373.906 71.9815 373.906 71.7039V66.1277C373.906 65.8655 373.813 65.6341 373.628 65.4336C373.443 65.2485 373.212 65.1559 372.934 65.1559H347.992C345.94 65.1559 344.081 64.6392 342.415 63.6057C340.734 62.5876 339.384 61.2379 338.366 59.5566C337.333 57.8907 336.816 56.0319 336.816 53.9804V47.5018C336.816 45.4503 337.333 43.5838 338.366 41.9025C339.384 40.2366 340.734 38.8869 342.415 37.8534C344.081 36.8353 345.94 36.3263 347.992 36.3263H373.351C375.448 36.3263 377.338 36.8353 379.019 37.8534C380.685 38.8869 382.035 40.2366 383.068 41.9025C384.086 43.5838 384.596 45.4503 384.596 47.5018V49.2834H373.906V47.8952C373.906 47.6329 373.813 47.4093 373.628 47.2242C373.443 47.0236 373.212 46.9234 372.934 46.9234H348.408C348.13 46.9234 347.899 47.0236 347.714 47.2242C347.529 47.4093 347.436 47.6329 347.436 47.8952V53.4945C347.436 53.7567 347.529 53.9881 347.714 54.1886C347.899 54.3737 348.13 54.4663 348.408 54.4663H373.351C375.448 54.4663 377.338 54.9753 379.019 55.9934C380.685 57.0269 382.035 58.3766 383.068 60.0425C384.086 61.7238 384.596 63.5903 384.596 65.6418V72.1204C384.596 74.1719 384.086 76.0384 383.068 77.7197C382.035 79.3856 380.685 80.7353 379.019 81.7688C377.338 82.7869 375.448 83.2959 373.351 83.2959H347.992Z" fill="#FF6900"/>
</svg>
